<?xml version="1.0" encoding="UTF-8"?>
<svg width="512" height="512" viewBox="0 0 512 512" xmlns="http://www.w3.org/2000/svg">
  <defs>
    <linearGradient id="bgGradient" x1="0%" y1="0%" x2="100%" y2="100%">
      <stop offset="0%" style="stop-color:#3498db;stop-opacity:1" />
      <stop offset="100%" style="stop-color:#2980b9;stop-opacity:1" />
    </linearGradient>
  </defs>
  <!-- Background -->
  <rect width="512" height="512" fill="url(#bgGradient)" rx="64"/>
  <!-- Hammer icon centered and scaled -->
  <g transform="translate(128, 128) scale(10.67)">
    <path d="M13,6 L11,8 L8,5 L10,3 L13,6 Z M17.5,10.5 L13.5,6.5 L11.5,8.5 L15.5,12.5 L17.5,10.5 Z M19,9 L17,7 L15,9 L17,11 L19,9 Z M19.5,12.5 L16,16 L17,17 L21,13 L19.5,12.5 Z M11,14 L3,22 L2,21 L10,13 L11,14 Z" fill="#f39c12" fill-rule="nonzero"/>
  </g>
</svg>

